<svg width="40" height="40" viewBox="0 0 40 40" fill="none" xmlns="http://www.w3.org/2000/svg">
<g id="shopping-cart-check">
<path id="shopping-cart-check_2" d="M39.238 12.0776L39.2362 12.0862L39.2346 12.0949L36.9908 24.4475C36.7129 25.8092 36.2822 26.8577 35.468 27.582C34.6591 28.3015 33.358 28.8 31.1207 28.8H12.7372C10.8036 28.8 9.27694 27.5389 9.02741 25.9513L9.02714 25.9496L5.69071 5.05423C5.69068 5.05407 5.69066 5.05391 5.69063 5.05375C5.42861 3.40514 3.93544 2.3 2.24516 2.3H1.66718C1.06208 2.3 0.7 1.87366 0.7 1.5C0.7 1.12634 1.06209 0.7 1.66718 0.7H2.24516C5.03025 0.7 7.23532 2.4893 7.60678 4.83738L7.60675 4.83738L7.60781 4.84369L8.07236 7.6157L8.17028 8.2H8.76273H35.5665C37.9768 8.2 39.64 10.143 39.238 12.0776ZM13.3841 39.3C12.1635 39.3 11.2944 38.4219 11.2944 37.5C11.2944 36.5709 12.1471 35.7 13.3619 35.7H13.3841C14.6027 35.7 15.4627 36.5743 15.4627 37.5C15.4627 38.4257 14.6027 39.3 13.3841 39.3ZM31.1674 35.7C32.386 35.7 33.246 36.5743 33.246 37.5C33.246 38.4257 32.386 39.3 31.1674 39.3C29.9449 39.3 29.0776 38.4222 29.0776 37.5C29.0776 36.5709 29.9303 35.7 31.1451 35.7H31.1674Z" stroke="white" stroke-width="1.4"/>
</g>
</svg>
